<svg width="500" height="500" viewBox="0 0 500 500" fill="none" xmlns="http://www.w3.org/2000/svg">
<ellipse cx="235.57" cy="71.0832" rx="40.0831" ry="40.0832" fill="#D2D2D2"/>
<ellipse cx="51.7221" cy="229.278" rx="26.7221" ry="26.7221" fill="#F2F2F2"/>
<ellipse cx="421.556" cy="256" rx="53.4442" ry="53.4442" fill="#B2B2B2"/>
<ellipse cx="165.558" cy="417.936" rx="13.361" ry="13.3611" fill="#FAFAFA"/>
<circle cx="41.5698" cy="41.5698" r="41.5698" transform="matrix(0.707106 0.707107 -0.707106 0.707107 361.326 52.873)" fill="#C2C2C2"/>
<circle cx="26.4535" cy="26.4535" r="26.4535" transform="matrix(0.707106 0.707107 -0.707106 0.707107 99.8144 74.2508)" fill="#E2E2E2"/>
<circle cx="56.6861" cy="56.6861" r="56.6861" transform="matrix(0.707106 0.707107 -0.707106 0.707107 362.082 309.444)" fill="#A2A2A2"/>
<path d="M91.8052 360.217C84.4261 367.596 72.4622 367.596 65.0831 360.217C57.704 352.837 57.704 340.874 65.0831 333.494C72.4622 326.115 84.4261 326.115 91.8052 333.494C99.1843 340.874 99.1843 352.837 91.8052 360.217Z" fill="#F6F6F6"/>
</svg>
